<?xml version="1.0" standalone="no"?>
<!DOCTYPE svg PUBLIC "-//W3C//DTD SVG 20010904//EN"
 "http://www.w3.org/TR/2001/REC-SVG-20010904/DTD/svg10.dtd">
<svg version="1.0" xmlns="http://www.w3.org/2000/svg"
 width="121.000000pt" height="116.000000pt" viewBox="0 0 121.000000 116.000000"
 preserveAspectRatio="xMidYMid meet">

<g transform="translate(0.000000,116.000000) scale(0.100000,-0.100000)"
fill="#000000" stroke="none">
<path d="M150 580 l0 -450 450 0 450 0 0 450 0 450 -450 0 -450 0 0 -450z
m830 0 l0 -380 -380 0 -380 0 0 373 c0 206 3 377 7 380 3 4 174 7 380 7 l373
0 0 -380z"/>
<path d="M280 745 l0 -145 35 0 c34 0 35 1 35 40 l0 40 115 0 115 0 0 105 0
105 -150 0 -150 0 0 -145z m230 40 l0 -45 -80 0 -80 0 0 45 0 45 80 0 80 0 0
-45z"/>
<path d="M630 745 l0 -145 145 0 145 0 0 30 0 30 -115 0 -115 0 0 30 0 30 115
0 115 0 0 30 0 30 -115 0 -115 0 0 25 0 25 115 0 115 0 0 30 0 30 -145 0 -145
0 0 -145z"/>
<path d="M280 405 l0 -145 35 0 35 0 0 115 0 115 25 0 25 0 0 -115 0 -115 30
0 30 0 0 115 0 115 25 0 25 0 0 -115 0 -115 35 0 35 0 0 145 0 145 -150 0
-150 0 0 -145z"/>
<path d="M630 405 l0 -145 30 0 c30 0 30 1 30 55 l0 55 85 0 85 0 0 -55 c0
-54 0 -55 30 -55 l30 0 0 145 0 145 -145 0 -145 0 0 -145z m228 58 c3 -22 1
-23 -82 -23 -85 0 -86 0 -86 25 0 26 0 26 83 23 76 -3 82 -5 85 -25z"/>
</g>
</svg>
