<?xml version="1.0" standalone="no"?>
<!DOCTYPE svg PUBLIC "-//W3C//DTD SVG 20010904//EN"
 "http://www.w3.org/TR/2001/REC-SVG-20010904/DTD/svg10.dtd">
<svg version="1.0" xmlns="http://www.w3.org/2000/svg"
 width="298.000000pt" height="116.000000pt" viewBox="0 0 298.000000 116.000000"
 preserveAspectRatio="xMidYMid meet">

<g transform="translate(0.000000,116.000000) scale(0.100000,-0.100000)"
fill="#000000" stroke="none">
<path d="M150 580 l0 -450 450 0 450 0 0 450 0 450 -450 0 -450 0 0 -450z
m830 0 l0 -380 -380 0 -380 0 0 373 c0 206 3 377 7 380 3 4 174 7 380 7 l373
0 0 -380z"/>
<path d="M280 745 l0 -145 35 0 c34 0 35 1 35 40 l0 40 115 0 115 0 0 105 0
105 -150 0 -150 0 0 -145z m230 40 l0 -45 -80 0 -80 0 0 45 0 45 80 0 80 0 0
-45z"/>
<path d="M630 745 l0 -145 145 0 145 0 0 30 0 30 -115 0 -115 0 0 30 0 30 115
0 115 0 0 30 0 30 -115 0 -115 0 0 25 0 25 115 0 115 0 0 30 0 30 -145 0 -145
0 0 -145z"/>
<path d="M280 405 l0 -145 35 0 35 0 0 115 0 115 25 0 25 0 0 -115 0 -115 30
0 30 0 0 115 0 115 25 0 25 0 0 -115 0 -115 35 0 35 0 0 145 0 145 -150 0
-150 0 0 -145z"/>
<path d="M630 405 l0 -145 30 0 c30 0 30 1 30 55 l0 55 85 0 85 0 0 -55 c0
-54 0 -55 30 -55 l30 0 0 145 0 145 -145 0 -145 0 0 -145z m228 58 c3 -22 1
-23 -82 -23 -85 0 -86 0 -86 25 0 26 0 26 83 23 76 -3 82 -5 85 -25z"/>
<path d="M1220 820 l0 -210 40 0 39 0 3 68 3 67 60 5 c103 8 151 60 143 152
-9 91 -68 128 -203 128 l-85 0 0 -210z m180 112 c25 -20 30 -63 10 -87 -8 -10
-30 -15 -61 -15 l-49 0 0 60 0 60 39 0 c23 0 48 -8 61 -18z"/>
<path d="M1560 820 l0 -210 120 0 120 0 0 40 0 40 -80 0 -80 0 0 45 0 45 70 0
70 0 0 40 0 40 -70 0 -70 0 0 45 0 45 80 0 80 0 0 40 0 40 -120 0 -120 0 0
-210z"/>
<path d="M1850 820 l0 -210 45 0 44 0 3 126 3 126 54 -126 c52 -124 54 -126
85 -126 31 0 33 2 88 133 l57 132 1 -132 0 -133 45 0 45 0 -2 208 -3 207 -55
0 -54 0 -57 -135 c-31 -74 -61 -134 -65 -133 -4 1 -33 62 -64 135 l-57 133
-56 3 -57 3 0 -211z"/>
<path d="M2511 1013 c-14 -27 -151 -384 -151 -394 0 -5 20 -9 45 -9 43 0 45 1
56 40 l12 40 89 0 90 0 15 -40 c15 -38 18 -40 60 -40 23 0 43 3 43 8 0 4 -35
98 -77 210 l-78 202 -47 0 c-35 0 -50 -5 -57 -17z m77 -145 c39 -106 41 -98
-22 -98 -31 0 -56 4 -56 10 0 5 8 31 18 57 11 26 22 56 25 66 10 26 14 22 35
-35z"/>
<path d="M1736 515 c-57 -20 -87 -45 -114 -96 -20 -37 -23 -54 -19 -107 9
-115 83 -182 201 -182 121 0 196 76 196 200 0 89 -52 161 -134 185 -60 18 -80
18 -130 0z m162 -54 c67 -48 88 -152 44 -223 -26 -41 -91 -78 -140 -78 -91 0
-164 73 -164 165 0 61 27 111 76 141 53 32 135 30 184 -5z"/>
<path d="M1220 325 c0 -167 2 -195 15 -195 12 0 15 17 15 90 l0 90 125 0 125
0 0 -90 c0 -73 3 -90 15 -90 13 0 15 28 15 195 0 164 -2 195 -15 195 -11 0
-15 -19 -17 -87 l-3 -88 -120 0 -120 0 -3 88 c-2 68 -6 87 -17 87 -13 0 -15
-31 -15 -195z"/>
<path d="M2070 326 c0 -188 1 -196 20 -196 18 0 20 8 22 157 l3 157 71 -155
c40 -88 77 -155 86 -157 11 -2 36 43 89 159 l74 161 3 -161 c2 -134 5 -161 17
-161 13 0 15 30 15 195 l0 195 -22 0 c-20 -1 -33 -24 -97 -165 -41 -91 -77
-162 -80 -159 -3 3 -38 76 -78 162 -63 139 -74 157 -97 160 l-26 3 0 -195z"/>
<path d="M2560 325 l0 -195 110 0 c91 0 110 3 110 15 0 12 -17 15 -90 15 l-90
0 0 75 0 75 80 0 c64 0 80 3 80 15 0 12 -16 15 -80 15 l-80 0 0 75 0 75 85 0
c69 0 85 3 85 15 0 12 -18 15 -105 15 l-105 0 0 -195z"/>
</g>
</svg>
