<?xml version="1.0" encoding="UTF-8"?>
<!DOCTYPE svg PUBLIC "-//W3C//DTD SVG 1.1//EN" "http://www.w3.org/Graphics/SVG/1.1/DTD/svg11.dtd">
<svg xmlns="http://www.w3.org/2000/svg" version="1.1" width="512px" height="512px" style="shape-rendering:geometricPrecision; text-rendering:geometricPrecision; image-rendering:optimizeQuality; fill-rule:evenodd; clip-rule:evenodd" xmlns:xlink="http://www.w3.org/1999/xlink">
<g><path style="opacity:0.975" fill="#000000" d="M 248.5,-0.5 C 253.167,-0.5 257.833,-0.5 262.5,-0.5C 329.411,27.6145 396.411,55.7812 463.5,84C 467.116,86.7425 469.616,90.2425 471,94.5C 471.667,138.167 471.667,181.833 471,225.5C 458.588,344.467 401.088,433.967 298.5,494C 286.531,500.153 274.531,505.986 262.5,511.5C 257.833,511.5 253.167,511.5 248.5,511.5C 140.597,464.409 73.0971,383.409 46,268.5C 43.1596,254.284 41.1596,239.95 40,225.5C 39.3333,181.833 39.3333,138.167 40,94.5C 41.3062,90.1867 43.8062,86.6867 47.5,84C 114.589,55.7812 181.589,27.6145 248.5,-0.5 Z M 252.5,42.5 C 258.052,43.0707 263.385,44.5707 268.5,47C 322.385,69.776 376.385,92.276 430.5,114.5C 431.812,150.84 431.645,187.174 430,223.5C 418.306,328.131 367.139,406.631 276.5,459C 269.732,462.718 262.732,465.884 255.5,468.5C 182.088,435.254 130.255,381.254 100,306.5C 89.7277,279.743 83.3944,252.077 81,223.5C 79.355,187.174 79.1883,150.84 80.5,114.5C 138.015,90.6697 195.348,66.6697 252.5,42.5 Z"/></g>
<g><path style="opacity:0.958" fill="#000000" d="M 331.5,174.5 C 350.962,177.148 357.462,187.815 351,206.5C 316.861,241.639 282.361,276.472 247.5,311C 238.139,316.953 228.805,316.953 219.5,311C 200.333,291.833 181.167,272.667 162,253.5C 156,244.167 156,234.833 162,225.5C 171.45,218.116 181.284,217.616 191.5,224C 205.347,238.014 219.347,251.847 233.5,265.5C 262.653,236.847 291.653,208.014 320.5,179C 324.053,176.879 327.72,175.379 331.5,174.5 Z"/></g>
</svg>
